<svg data-v-0dd9719b="" version="1.0" xmlns="http://www.w3.org/2000/svg" xmlns:xlink="http://www.w3.org/1999/xlink" width="100%" height="100%" viewBox="0 0 340.000000 250.000000" preserveAspectRatio="xMidYMid meet" color-interpolation-filters="sRGB" style="margin: auto;"> <rect data-v-0dd9719b="" x="0" y="0" width="100%" height="100%" fill="#fff" fill-opacity="1" class="background"></rect> <rect data-v-0dd9719b="" x="0" y="0" width="100%" height="100%" fill="url(#watermark)" fill-opacity="1" class="watermarklayer"></rect> <g data-v-0dd9719b="" fill="#333" class="icon-text-wrapper icon-svg-group iconsvg" transform="translate(53.339996337890625,99.01922607421875)"><g class="iconsvg-imagesvg" transform="translate(0,0)"><g><rect fill="#333" fill-opacity="0" stroke-width="2" x="0" y="0" width="60" height="51.96154845414393" class="image-rect"></rect> <svg x="0" y="0" width="60" height="51.96154845414393" filtersec="colorsb9940574836" class="image-svg-svg primary" style="overflow: visible;"><svg xmlns="http://www.w3.org/2000/svg" viewBox="0 0 115.47000122070312 100"><title>资源 3</title><path fill="#333" d="M57.73 56.93L32.87 100H82.6L57.73 56.93z"></path><path d="M32.32 81.87L21.85 100H0l10.47-18.13zM57.74 0L16 72.33h21.83l19.91-34.48L93.62 100h21.85z" fill="#fd6727"></path></svg></svg> <!----></g></g> <g transform="translate(67,3.960773468017578)"><g data-gra="path-name" fill-rule="" class="tp-name iconsvg-namesvg"><g transform="scale(1)"><g><path d="M42.66 0L35.76 0 32.58-11.28 12.54-11.28 7.02 0 0 0 21.66-44.04 30.3-44.04 42.66 0ZM25.26-37.32L15.54-17.46 30.84-17.46 25.26-37.32ZM55.38-12.06L65.76-30.6 72.12-30.6 54.96 0 53.34 0 42.66-30.6 48.96-30.6 55.38-12.06ZM72.12 0L75.36-30.6 103.68-30.6 101.34-8.94 100.98 0 95.52 0 95.4-3.06 89.04 0 72.12 0ZM81-24.36L79.02-6.18 89.64-6.18 95.1-9 96.66-24.36 81-24.36ZM106.98-30.6L103.68 0 109.98 0 112.56-24.36 127.86-24.36 125.22 0 131.58 0 134.76-30.6 106.98-30.6ZM134.76 0L138-30.6 166.32-30.6 163.98-8.94 163.62 0 158.16 0 158.04-3.06 151.68 0 134.76 0ZM143.64-24.36L141.66-6.18 152.28-6.18 157.74-9 159.3-24.36 143.64-24.36Z" transform="translate(0, 44.040000915527344)"></path></g> <!----> <!----> <!----> <!----> <!----> <!----> <!----></g></g> <!----></g></g><defs v-gra="od"></defs></svg>